<?xml version="1.0" encoding="UTF-8"?>
<!DOCTYPE svg PUBLIC "-//W3C//DTD SVG 1.1//EN" "http://www.w3.org/Graphics/SVG/1.1/DTD/svg11.dtd">
<!-- Creator: CorelDRAW -->
<svg xmlns="http://www.w3.org/2000/svg" xml:space="preserve" width="210mm" height="297mm" version="1.1" style="shape-rendering:geometricPrecision; text-rendering:geometricPrecision; image-rendering:optimizeQuality; fill-rule:evenodd; clip-rule:evenodd"
viewBox="0 0 21000 29700"
 xmlns:xlink="http://www.w3.org/1999/xlink"
 xmlns:xodm="http://www.corel.com/coreldraw/odm/2003">
 <defs>
  <style type="text/css">
   <![CDATA[
    .str2 {stroke:#5C463F;stroke-width:53.82;stroke-miterlimit:22.9256}
    .str1 {stroke:#5C463F;stroke-width:35.88;stroke-linejoin:round;stroke-miterlimit:22.9256}
    .str0 {stroke:#5C463F;stroke-width:71.76;stroke-linejoin:round;stroke-miterlimit:22.9256}
    .fil5 {fill:none}
    .fil0 {fill:none;fill-rule:nonzero}
    .fil8 {fill:#5C463F}
    .fil6 {fill:#81FF61}
    .fil1 {fill:#5C463F;fill-rule:nonzero}
    .fil3 {fill:#5C463F;fill-rule:nonzero}
    .fil2 {fill:#FEFEFE;fill-opacity:0.058824}
    .fil4 {fill:#FEFEFE;fill-opacity:0.219608}
    .fil7 {fill:#FEFEFE;fill-opacity:0.431373}
   ]]>
  </style>
   <clipPath id="id0" style="clip-rule:nonzero">
    <path d="M9415.13 14520.64c-22.04,111.01 -60.23,195.05 -116.13,250.75 -55.5,55.31 -124.78,80.69 -202.32,80.69 -49.99,0 -95.47,-10.43 -135.81,-29.52 -40.35,-19.09 -74.45,-46.31 -104.7,-79.71 -37.86,-41.8 -63.12,-87.76 -79.13,-136 -13.53,-40.8 -17.78,-88.91 -8.26,-150.96 8.97,-58.41 27.14,-123.29 50.78,-198.39 24,-76.28 42.08,-151.44 74.4,-221.42 77.27,-167.33 119.74,-268.76 159.81,-325.14 21.34,-30.03 48.45,-37.67 81.88,-20.87 37.83,19.02 57.07,79.12 120.06,149.98 -5.12,46.84 -11.42,93.09 -20.87,139.15 -37,-67.31 -71.95,-112.3 -102.74,-132.85 -30.23,-20.2 -56.31,-19.31 -76.75,-1.58 -31.51,27.33 -47.14,83.12 -58.66,166.9 -5.8,42.26 -13.22,89.47 -18.1,141.12 -4.97,52.5 -10.35,110.02 -12.6,173.59 -2.08,58.84 -0.52,111.17 5.51,156.47 6.16,46.22 16.86,86.06 33.07,120.46 33.39,70.89 81.48,106.29 143.67,102.54 38.97,-2.35 75.77,-24.78 107.07,-69.48 31.69,-45.25 55.9,-112.18 72.82,-201.54 28.74,27.95 57.87,56.68 87,85.81z"/>
   </clipPath>
   <clipPath id="id1" style="clip-rule:nonzero">
    <path d="M9213.19 13558.8c24.8,-23.03 49.6,-46.25 74.79,-69.28 72.04,118.88 173.12,229.5 238.55,361.75 65.07,131.52 106.5,271.87 138.56,410.95 31.34,135.97 52.63,230.93 79.91,284.6 27.03,53.2 62.59,79.12 108.64,76.56 46.06,-2.56 75.62,-32.74 84.24,-91.32 8.69,-59.13 -0.49,-163.85 -43.3,-310.18 -43.83,-149.82 -99.43,-301.77 -183.83,-441.66 -85.96,-142.48 -214.53,-257.84 -322.39,-375.14 13.38,-11.02 26.38,-21.65 40.15,-32.67 133.84,124.78 279.27,253.43 375.92,413.51 93.9,155.54 151.91,324.98 200.76,489.68 29.1,98.13 41.31,185.16 44.09,258.43 2.73,72.19 -4.34,132.8 -21.26,179.5 -33.87,93.47 -101.95,138.03 -198,138.16 -43.69,0.06 -85.74,-12.73 -127.14,-37.59 -40.86,-24.54 -74.08,-57.48 -100.78,-98.81 -26.83,-41.53 -47.84,-88.81 -62.58,-141.51 -14.78,-52.79 -26.34,-126.26 -41.33,-219.84 -22.41,-139.88 -49.55,-281.7 -100.38,-416.47 -50.88,-134.88 -133.44,-251.92 -184.62,-378.67z"/>
   </clipPath>
   <clipPath id="id2" style="clip-rule:nonzero">
    <path d="M10279.94 14815.47c-44.87,-252.12 -91.73,-520.06 -203.11,-780.18 -117.46,-274.3 -331.83,-511.13 -580.22,-710.9 27.56,-19.69 55.5,-39.56 84.63,-57.87 252.32,170.25 476.94,373.51 611.32,620.57 127.27,234 190.91,482.79 249.56,715.82 85.42,-3.93 171.62,-7.67 257.44,-11.21 18.5,74.39 33.85,147.81 49.2,220.63 -156.66,0.98 -312.54,1.77 -468.82,3.14z"/>
   </clipPath>
   <clipPath id="id3" style="clip-rule:nonzero">
    <path d="M11070.36 14810.56c-68.49,0.19 -136.19,0.58 -204.69,0.98 -65.73,-279.09 -135.98,-581.74 -290.5,-871.31 -166.81,-312.61 -460.95,-572.54 -824.27,-773.3 31.1,-16.73 62.98,-33.85 95.65,-49.2 402.69,199.57 723.31,466.86 906.54,791.99 168.53,299.04 246.02,612.89 317.27,900.84z"/>
   </clipPath>
   <clipPath id="id4" style="clip-rule:nonzero">
    <path d="M11249.47 14809.77c-75.97,-294.83 -158.95,-618.1 -338.92,-925.04 -196.73,-335.52 -540.47,-608.76 -976.22,-807.55 37.4,-16.72 76.37,-31.49 115.34,-46.45 281.45,76.76 553.19,172.08 771.92,324.56 206.51,143.96 370.4,323.96 522.35,495.19 -116.12,-176.35 -244.28,-364 -425.52,-515.86 -195.01,-163.4 -455.83,-267.47 -736.88,-348.36 20.46,-6.11 41.33,-12.4 62.19,-18.7 538.88,192.29 951.02,480.87 1187.2,846.9 212.21,328.88 308.61,679.02 395.21,993.14 -39.76,0.2 -79.12,0.2 -119.27,0.2 -117.3,-223.59 -242.29,-459.05 -403.48,-688.86 -170.42,-242.99 -388.51,-471.97 -640.05,-693.59 201.94,230.68 366.96,465.7 475.91,708.74 102.61,228.92 163.75,458.39 218.86,675.09 -36.61,0.2 -72.43,0.39 -108.64,0.59z"/>
   </clipPath>
   <clipPath id="id5" style="clip-rule:nonzero">
    <path d="M11804.49 13952.63c58.65,-3.74 117.7,-7.28 177.14,-10.83 -93.69,-129.7 -192.93,-263.58 -313.33,-388.71 -125.36,-130.28 -275.16,-247.6 -440.09,-360.97 137.77,116.72 260.39,236.92 355.85,369.24 91.27,126.51 158.24,261.57 220.43,391.27zm107.86 854.58c-46.45,-317.66 -98.94,-673.99 -284.6,-1013.41 -207.84,-379.97 -618.01,-681.58 -1180.12,-872.89 43.7,-6.1 87.39,-12.4 131.08,-18.7 664.46,175.17 1175.22,468.98 1491.88,858.72 278.93,343.3 429.85,716.61 560.93,1044.9 -73.22,0.2 -146.04,0.2 -218.86,0.2 -35.03,-93.88 -73.05,-190.55 -116.12,-287.75 -44.32,-100.01 -95.27,-201.15 -150.37,-304.28 -81.88,3.15 -163.36,6.3 -244.06,10.04 29.52,101.75 54.31,202.1 73.22,300.15 18.48,95.82 30.7,190.71 41.33,282.63 -35.03,0.19 -69.67,0.19 -104.31,0.39z"/>
   </clipPath>
   <clipPath id="id6" style="clip-rule:nonzero">
    <path d="M10271.04 16439.82c219.13,148.39 403.01,253.3 536.63,296.59 144.92,46.95 201.88,52.92 156.59,61.08 -29.07,5.24 -98.79,6.2 -212.06,2.29 -114.13,-3.94 -265.38,-14.58 -443.4,-54.95 -232.54,-52.73 -474.64,-135.8 -697.54,-265.56 -208.77,-121.53 -392.19,-279.03 -535.46,-464.31 -125.88,-162.81 -192.69,-322.64 -223.47,-460.29 -29.46,-131.78 -29.83,-249.31 -3.14,-347.32 52.02,-191.03 147.54,-281.48 267.92,-281.85 69.24,-0.2 132.04,32.35 190.03,98.23 58.46,66.42 120.78,171.36 190.02,316.11 -14.16,62.23 -28.72,125.41 -37.37,189.55 -64.92,-128.28 -120.65,-222.39 -166.03,-284.33 -45.11,-61.55 -88.92,-91.24 -131.8,-90.56 -65.7,1.04 -107.69,68.82 -110.55,207.17 -1.46,70.66 12.22,158.41 47.21,260.2 36.25,105.47 93.3,230.21 188.85,363.02 93.9,130.55 206.16,241.85 323.79,334.69 122.88,97 248.17,176.91 375.72,232.44 264.52,115.16 433.58,151.18 480.38,142.27 29.53,-5.63 -7.19,-29.92 -97.97,-90 -87.66,-58.01 -208.51,-159.3 -355.66,-297.15 83.81,45.76 169.18,89.99 257.31,132.68z"/>
   </clipPath>
   <clipPath id="id7" style="clip-rule:nonzero">
    <path d="M10214.78 15730.63c-59.02,-135.18 -108.76,-267.66 -141.24,-399.41 -31.28,-126.84 -49.18,-252.54 -62.95,-374.31 69.24,-0.77 139.27,-1.54 209.69,-2.3 41.31,282.41 90.03,595.3 255.34,887.45 183.43,324.18 524.83,581.3 956.82,767.59 -31.87,13.98 -64.13,28.34 -96.39,41.94 -223.47,-62.42 -428.11,-144.72 -591.33,-266.53 -155.22,-115.84 -275.39,-258.1 -380.44,-396.14 -65.7,10.72 -131.01,21.25 -197.11,31.78 114.88,142.45 246.16,289.43 415.46,406.87 179.12,124.25 401.3,205.45 644.05,265.37 -35.41,11.88 -71.61,23.36 -107.41,35.24 -550.8,-179.79 -988.93,-446.36 -1228.68,-805.13 -209.52,-313.53 -270.68,-658.46 -316.32,-961.93 69.64,-0.58 140.46,-1.15 210.49,-1.92 14.16,124.84 32.31,253.97 66.1,384.28 35.09,135.39 89.3,271.88 153.04,411.27 70.03,-8.04 140.45,-15.89 210.88,-24.12z"/>
   </clipPath>
   <clipPath id="id8" style="clip-rule:nonzero">
    <path d="M11512.7 16571.17c-396.58,-187.25 -709.89,-440.81 -876.56,-754.57 -151.52,-285.24 -195.54,-588.38 -234.09,-864.1 108.58,-1.15 217.57,-2.48 326.94,-4.02 94.03,-1.33 170.7,39.7 232.91,120.43 62.9,81.64 102.89,194.46 132.58,341.39 22.25,110.06 35.02,202.58 35.8,277.82 0.8,76.62 -11.01,135.75 -45.63,176.53 89.7,112.01 184.1,225.81 295.86,322.25 113.93,98.31 247.86,173.47 391.06,234.35 -30.29,20.3 -60.59,39.83 -91.67,58.21 -190.81,-75.25 -367.01,-169.06 -510.67,-297.54 -138.17,-123.58 -247.46,-269.59 -348.18,-411.85 13.77,-2.3 27.48,-4.92 40.91,-7.28 45.58,-7.98 67.25,-38.77 70.82,-92.86 3.51,-53.2 -8.84,-128.98 -33.44,-229.38 -25.37,-103.54 -51.5,-178.77 -84.98,-226.89 -33,-47.42 -76.71,-70.04 -131.41,-67.58 -17.69,0.79 -34.61,1.34 -52.32,2.1 46.43,242.21 101.83,504.25 241.17,747.11 150.1,261.59 408.78,472.16 728.24,631.46 -29.12,14.55 -57.84,29.48 -87.34,44.42z"/>
   </clipPath>
   <clipPath id="id9" style="clip-rule:nonzero">
    <path d="M11448.96 15670.89c26.81,94.81 61.61,177.63 99.54,246.99 38.41,70.24 78.55,128.14 119.6,171.17 81.74,85.68 140.78,116.01 166.03,101.1 26.29,-15.53 13.8,-70.29 -14.56,-169.83 -14.17,-49.75 -26.09,-109.72 -40.52,-178.45 -14.29,-68.02 -27.9,-146.14 -41.71,-232.44 -13.73,-85.87 -23.39,-161.84 -36.19,-227.28 -12.77,-65.32 -26.43,-120.93 -43.67,-166.95 -34.69,-92.6 -79.47,-137.57 -132.19,-135.18 -52.72,2.39 -91.6,52.71 -110.95,154.51 -9.76,51.38 -13.92,113.42 -8.66,185.54 5.36,73.4 16.96,157.73 43.28,250.82zm66.88 -758.98c51.93,-0.47 102.16,14.02 151.08,42.89 49.04,28.95 91.12,69.68 126.29,121.2 41.95,61.45 73.53,132.8 94.42,215.4 20.81,82.25 31.29,174.17 38.17,276.48 6.89,102.41 9.26,199.01 12.98,289.31 3.76,91.33 9.23,173.06 20.06,243.93 8.89,58.11 20.69,103.79 28.73,139.39 7.76,34.4 9.06,58.09 -7.48,72.56 -16.51,14.45 -49.75,20.04 -101.9,12.83 -51.76,-7.15 -115.66,-27.25 -184.52,-67.4 -86.24,-50.28 -172.42,-122.99 -250.22,-217.89 -76.89,-93.79 -141.46,-206.43 -186.09,-333.72 -42.77,-121.98 -59.24,-238.22 -56.65,-343.69 2.52,-102.72 23.34,-191.75 57.05,-265.37 27.66,-60.42 65.83,-106.46 110.94,-138.24 45.37,-31.97 94.42,-47.2 147.14,-47.68z"/>
   </clipPath>
   <clipPath id="id10" style="clip-rule:nonzero">
    <path d="M12127.23 16126.2c-62.16,-180.94 -91.46,-383.79 -92.85,-589.34 -1.37,-204.33 10.23,-405.72 12.98,-604.65 77.12,-0.77 154.23,-1.92 230.95,-2.87 36.98,92.09 71.1,180.38 98.75,265.37 25.86,79.5 45.24,154.51 60.98,223.25 22.43,-82.52 44.22,-164.13 59.41,-246.04 15.1,-81.45 23.6,-163.51 29.9,-246.03 37.38,-0.58 75.14,-1.53 112.91,-2.68 -12.59,137.28 -37.67,274.56 -86.55,409.16 -51.09,140.68 -120.39,283.38 -173.5,427.93 -33.84,66.25 -60.2,117.38 -79.87,147.05 -14.16,-81.18 -22.1,-180.16 -45.64,-289.88 -25.66,-119.6 -65.7,-244.31 -109.76,-375.47 -9.84,142.45 -21.84,286.17 -24.4,430.8 -2.55,144.73 10.63,286.25 44.46,413.19 -12.59,14.36 -25.18,26.81 -37.77,40.21z"/>
   </clipPath>
   <clipPath id="id11">
    <path d="M9573.49 14624.59l69.61 572.51 2204.89 -273.64 -73.38 -572.03 -2201.12 273.16zm-210.38 207.33c-46.16,-34.28 -167.31,-52.23 -228.52,-59.83 -93.82,-11.65 -166.81,18.89 -212.27,69.03l-18.78 24.15c-38.56,58.02 -45.99,133.65 -14.59,201.22 10.72,23.07 24.88,42.8 41.66,59.15l34.08 26.51c60.68,37.23 141.46,41.86 218.85,11.65l104.86 -45.37c25.88,-14.95 80.8,-42.94 101.91,-68.86 23.66,31.2 3.29,90.06 30.98,129.79 32.15,46.12 90.74,42.19 129.91,29.23l-69.42 -570.62c-182.56,-11.4 -103.56,158.24 -118.67,193.95zm2664.31 -332.96c-23.65,-31.19 -3.28,-90.06 -30.97,-129.78 -32.16,-46.12 -90.74,-42.2 -129.91,-29.24l69.41 570.62c62.16,3.47 85.98,-12.54 113.98,-48.54 33.35,-42.88 -12.74,-104.19 4.69,-145.41 26.84,19.93 86.96,33.54 115.73,41.66 90.85,25.64 254.55,39.8 325.19,-51.03l1.14 -1.46c23.78,-30.62 38.34,-51.2 47.26,-92.24 15.76,-72.56 -9.99,-147.52 -63.82,-196.1l-23.48 -18.25c-55.73,-37.2 -133.23,-49.28 -222.45,-14.46 -19.46,7.6 -31.42,13.46 -50.74,20.91 -42.1,16.25 -129.07,60.21 -156.03,93.32z"/>
   </clipPath>
 </defs>
 <g id="Camada_x0020_1">
  <metadata id="CorelCorpID_0Corel-Layer"/>
  <g>
   <path class="fil0 str0" d="M9415.13 14520.64c-22.04,111.01 -60.23,195.05 -116.13,250.75 -55.5,55.31 -124.78,80.69 -202.32,80.69 -49.99,0 -95.47,-10.43 -135.81,-29.52 -40.35,-19.09 -74.45,-46.31 -104.7,-79.71 -37.86,-41.8 -63.12,-87.76 -79.13,-136 -13.53,-40.8 -17.78,-88.91 -8.26,-150.96 8.97,-58.41 27.14,-123.29 50.78,-198.39 24,-76.28 42.08,-151.44 74.4,-221.42 77.27,-167.33 119.74,-268.76 159.81,-325.14 21.34,-30.03 48.45,-37.67 81.88,-20.87 37.83,19.02 57.07,79.12 120.06,149.98 -5.12,46.84 -11.42,93.09 -20.87,139.15 -37,-67.31 -71.95,-112.3 -102.74,-132.85 -30.23,-20.2 -56.31,-19.31 -76.75,-1.58 -31.51,27.33 -47.14,83.12 -58.66,166.9 -5.8,42.26 -13.22,89.47 -18.1,141.12 -4.97,52.5 -10.35,110.02 -12.6,173.59 -2.08,58.84 -0.52,111.17 5.51,156.47 6.16,46.22 16.86,86.06 33.07,120.46 33.39,70.89 81.48,106.29 143.67,102.54 38.97,-2.35 75.77,-24.78 107.07,-69.48 31.69,-45.25 55.9,-112.18 72.82,-201.54 28.74,27.95 57.87,56.68 87,85.81zm-201.94 -961.84c24.8,-23.03 49.6,-46.25 74.79,-69.28 72.04,118.88 173.12,229.5 238.55,361.75 65.07,131.52 106.5,271.87 138.56,410.95 31.34,135.97 52.63,230.93 79.91,284.6 27.03,53.2 62.59,79.12 108.64,76.56 46.06,-2.56 75.62,-32.74 84.24,-91.32 8.69,-59.13 -0.49,-163.85 -43.3,-310.18 -43.83,-149.82 -99.43,-301.77 -183.83,-441.66 -85.96,-142.48 -214.53,-257.84 -322.39,-375.14 13.38,-11.02 26.38,-21.65 40.15,-32.67 133.84,124.78 279.27,253.43 375.92,413.51 93.9,155.54 151.91,324.98 200.76,489.68 29.1,98.13 41.31,185.16 44.09,258.43 2.73,72.19 -4.34,132.8 -21.26,179.5 -33.87,93.47 -101.95,138.03 -198,138.16 -43.69,0.06 -85.74,-12.73 -127.14,-37.59 -40.86,-24.54 -74.08,-57.48 -100.78,-98.81 -26.83,-41.53 -47.84,-88.81 -62.58,-141.51 -14.78,-52.79 -26.34,-126.26 -41.33,-219.84 -22.41,-139.88 -49.55,-281.7 -100.38,-416.47 -50.88,-134.88 -133.44,-251.92 -184.62,-378.67zm1066.75 1256.67c-44.87,-252.12 -91.73,-520.06 -203.11,-780.18 -117.46,-274.3 -331.83,-511.13 -580.22,-710.9 27.56,-19.69 55.5,-39.56 84.63,-57.87 252.32,170.25 476.94,373.51 611.32,620.57 127.27,234 190.91,482.79 249.56,715.82 85.42,-3.93 171.62,-7.67 257.44,-11.21 18.5,74.39 33.85,147.81 49.2,220.63 -156.66,0.98 -312.54,1.77 -468.82,3.14zm790.42 -4.91c-68.49,0.19 -136.19,0.58 -204.69,0.98 -65.73,-279.09 -135.98,-581.74 -290.5,-871.31 -166.81,-312.61 -460.95,-572.54 -824.27,-773.3 31.1,-16.73 62.98,-33.85 95.65,-49.2 402.69,199.57 723.31,466.86 906.54,791.99 168.53,299.04 246.02,612.89 317.27,900.84zm179.11 -0.79c-75.97,-294.83 -158.95,-618.1 -338.92,-925.04 -196.73,-335.52 -540.47,-608.76 -976.22,-807.55 37.4,-16.72 76.37,-31.49 115.34,-46.45 281.45,76.76 553.19,172.08 771.92,324.56 206.51,143.96 370.4,323.96 522.35,495.19 -116.12,-176.35 -244.28,-364 -425.52,-515.86 -195.01,-163.4 -455.83,-267.47 -736.88,-348.36 20.46,-6.11 41.33,-12.4 62.19,-18.7 538.88,192.29 951.02,480.87 1187.2,846.9 212.21,328.88 308.61,679.02 395.21,993.14 -39.76,0.2 -79.12,0.2 -119.27,0.2 -117.3,-223.59 -242.29,-459.05 -403.48,-688.86 -170.42,-242.99 -388.51,-471.97 -640.05,-693.59 201.94,230.68 366.96,465.7 475.91,708.74 102.61,228.92 163.75,458.39 218.86,675.09 -36.61,0.2 -72.43,0.39 -108.64,0.59zm555.02 -857.14c58.65,-3.74 117.7,-7.28 177.14,-10.83 -93.69,-129.7 -192.93,-263.58 -313.33,-388.71 -125.36,-130.28 -275.16,-247.6 -440.09,-360.97 137.77,116.72 260.39,236.92 355.85,369.24 91.27,126.51 158.24,261.57 220.43,391.27zm107.86 854.58c-46.45,-317.66 -98.94,-673.99 -284.6,-1013.41 -207.84,-379.97 -618.01,-681.58 -1180.12,-872.89 43.7,-6.1 87.39,-12.4 131.08,-18.7 664.46,175.17 1175.22,468.98 1491.88,858.72 278.93,343.3 429.85,716.61 560.93,1044.9 -73.22,0.2 -146.04,0.2 -218.86,0.2 -35.03,-93.88 -73.05,-190.55 -116.12,-287.75 -44.32,-100.01 -95.27,-201.15 -150.37,-304.28 -81.88,3.15 -163.36,6.3 -244.06,10.04 29.52,101.75 54.31,202.1 73.22,300.15 18.48,95.82 30.7,190.71 41.33,282.63 -35.03,0.19 -69.67,0.19 -104.31,0.39z"/>
  </g>
  <path id="_1" class="fil1" d="M9415.13 14520.64c-22.04,111.01 -60.23,195.05 -116.13,250.75 -55.5,55.31 -124.78,80.69 -202.32,80.69 -49.99,0 -95.47,-10.43 -135.81,-29.52 -40.35,-19.09 -74.45,-46.31 -104.7,-79.71 -37.86,-41.8 -63.12,-87.76 -79.13,-136 -13.53,-40.8 -17.78,-88.91 -8.26,-150.96 8.97,-58.41 27.14,-123.29 50.78,-198.39 24,-76.28 42.08,-151.44 74.4,-221.42 77.27,-167.33 119.74,-268.76 159.81,-325.14 21.34,-30.03 48.45,-37.67 81.88,-20.87 37.83,19.02 57.07,79.12 120.06,149.98 -5.12,46.84 -11.42,93.09 -20.87,139.15 -37,-67.31 -71.95,-112.3 -102.74,-132.85 -30.23,-20.2 -56.31,-19.31 -76.75,-1.58 -31.51,27.33 -47.14,83.12 -58.66,166.9 -5.8,42.26 -13.22,89.47 -18.1,141.12 -4.97,52.5 -10.35,110.02 -12.6,173.59 -2.08,58.84 -0.52,111.17 5.51,156.47 6.16,46.22 16.86,86.06 33.07,120.46 33.39,70.89 81.48,106.29 143.67,102.54 38.97,-2.35 75.77,-24.78 107.07,-69.48 31.69,-45.25 55.9,-112.18 72.82,-201.54 28.74,27.95 57.87,56.68 87,85.81zm-201.94 -961.84c24.8,-23.03 49.6,-46.25 74.79,-69.28 72.04,118.88 173.12,229.5 238.55,361.75 65.07,131.52 106.5,271.87 138.56,410.95 31.34,135.97 52.63,230.93 79.91,284.6 27.03,53.2 62.59,79.12 108.64,76.56 46.06,-2.56 75.62,-32.74 84.24,-91.32 8.69,-59.13 -0.49,-163.85 -43.3,-310.18 -43.83,-149.82 -99.43,-301.77 -183.83,-441.66 -85.96,-142.48 -214.53,-257.84 -322.39,-375.14 13.38,-11.02 26.38,-21.65 40.15,-32.67 133.84,124.78 279.27,253.43 375.92,413.51 93.9,155.54 151.91,324.98 200.76,489.68 29.1,98.13 41.31,185.16 44.09,258.43 2.73,72.19 -4.34,132.8 -21.26,179.5 -33.87,93.47 -101.95,138.03 -198,138.16 -43.69,0.06 -85.74,-12.73 -127.14,-37.59 -40.86,-24.54 -74.08,-57.48 -100.78,-98.81 -26.83,-41.53 -47.84,-88.81 -62.58,-141.51 -14.78,-52.79 -26.34,-126.26 -41.33,-219.84 -22.41,-139.88 -49.55,-281.7 -100.38,-416.47 -50.88,-134.88 -133.44,-251.92 -184.62,-378.67zm1066.75 1256.67c-44.87,-252.12 -91.73,-520.06 -203.11,-780.18 -117.46,-274.3 -331.83,-511.13 -580.22,-710.9 27.56,-19.69 55.5,-39.56 84.63,-57.87 252.32,170.25 476.94,373.51 611.32,620.57 127.27,234 190.91,482.79 249.56,715.82 85.42,-3.93 171.62,-7.67 257.44,-11.21 18.5,74.39 33.85,147.81 49.2,220.63 -156.66,0.98 -312.54,1.77 -468.82,3.14zm790.42 -4.91c-68.49,0.19 -136.19,0.58 -204.69,0.98 -65.73,-279.09 -135.98,-581.74 -290.5,-871.31 -166.81,-312.61 -460.95,-572.54 -824.27,-773.3 31.1,-16.73 62.98,-33.85 95.65,-49.2 402.69,199.57 723.31,466.86 906.54,791.99 168.53,299.04 246.02,612.89 317.27,900.84zm179.11 -0.79c-75.97,-294.83 -158.95,-618.1 -338.92,-925.04 -196.73,-335.52 -540.47,-608.76 -976.22,-807.55 37.4,-16.72 76.37,-31.49 115.34,-46.45 281.45,76.76 553.19,172.08 771.92,324.56 206.51,143.96 370.4,323.96 522.35,495.19 -116.12,-176.35 -244.28,-364 -425.52,-515.86 -195.01,-163.4 -455.83,-267.47 -736.88,-348.36 20.46,-6.11 41.33,-12.4 62.19,-18.7 538.88,192.29 951.02,480.87 1187.2,846.9 212.21,328.88 308.61,679.02 395.21,993.14 -39.76,0.2 -79.12,0.2 -119.27,0.2 -117.3,-223.59 -242.29,-459.05 -403.48,-688.86 -170.42,-242.99 -388.51,-471.97 -640.05,-693.59 201.94,230.68 366.96,465.7 475.91,708.74 102.61,228.92 163.75,458.39 218.86,675.09 -36.61,0.2 -72.43,0.39 -108.64,0.59zm555.02 -857.14c58.65,-3.74 117.7,-7.28 177.14,-10.83 -93.69,-129.7 -192.93,-263.58 -313.33,-388.71 -125.36,-130.28 -275.16,-247.6 -440.09,-360.97 137.77,116.72 260.39,236.92 355.85,369.24 91.27,126.51 158.24,261.57 220.43,391.27zm107.86 854.58c-46.45,-317.66 -98.94,-673.99 -284.6,-1013.41 -207.84,-379.97 -618.01,-681.58 -1180.12,-872.89 43.7,-6.1 87.39,-12.4 131.08,-18.7 664.46,175.17 1175.22,468.98 1491.88,858.72 278.93,343.3 429.85,716.61 560.93,1044.9 -73.22,0.2 -146.04,0.2 -218.86,0.2 -35.03,-93.88 -73.05,-190.55 -116.12,-287.75 -44.32,-100.01 -95.27,-201.15 -150.37,-304.28 -81.88,3.15 -163.36,6.3 -244.06,10.04 29.52,101.75 54.31,202.1 73.22,300.15 18.48,95.82 30.7,190.71 41.33,282.63 -35.03,0.19 -69.67,0.19 -104.31,0.39z"/>
  <g style="clip-path:url(#id0)">
   <g id="_1837583830624">
    <path id="_2" class="fil2" d="M11313.21 12689.69c655.15,471.4 991.44,926.75 1008.87,1366.06 -846.13,-954.07 -1786.07,-1202.64 -2819.84,-745.69 305.81,-406.3 909.46,-613.08 1810.97,-620.37z"/>
   </g>
  </g>
  <g style="clip-path:url(#id1)">
   <g id="_1837583830624">
    <path class="fil2" d="M11313.21 12689.69c655.15,471.4 991.44,926.75 1008.87,1366.06 -846.13,-954.07 -1786.07,-1202.64 -2819.84,-745.69 305.81,-406.3 909.46,-613.08 1810.97,-620.37z"/>
   </g>
  </g>
  <g style="clip-path:url(#id2)">
   <g id="_1837583830624">
    <path class="fil2" d="M11313.21 12689.69c655.15,471.4 991.44,926.75 1008.87,1366.06 -846.13,-954.07 -1786.07,-1202.64 -2819.84,-745.69 305.81,-406.3 909.46,-613.08 1810.97,-620.37z"/>
   </g>
  </g>
  <g style="clip-path:url(#id3)">
   <g id="_1837583830624">
    <path class="fil2" d="M11313.21 12689.69c655.15,471.4 991.44,926.75 1008.87,1366.06 -846.13,-954.07 -1786.07,-1202.64 -2819.84,-745.69 305.81,-406.3 909.46,-613.08 1810.97,-620.37z"/>
   </g>
  </g>
  <g style="clip-path:url(#id4)">
   <g id="_1837583830624">
    <path class="fil2" d="M11313.21 12689.69c655.15,471.4 991.44,926.75 1008.87,1366.06 -846.13,-954.07 -1786.07,-1202.64 -2819.84,-745.69 305.81,-406.3 909.46,-613.08 1810.97,-620.37z"/>
   </g>
  </g>
  <g style="clip-path:url(#id5)">
   <g id="_1837583830624">
    <path class="fil2" d="M11313.21 12689.69c655.15,471.4 991.44,926.75 1008.87,1366.06 -846.13,-954.07 -1786.07,-1202.64 -2819.84,-745.69 305.81,-406.3 909.46,-613.08 1810.97,-620.37z"/>
   </g>
  </g>
  <g>
   <path class="fil0 str1" d="M10271.04 16439.82c219.13,148.39 403.01,253.3 536.63,296.59 144.92,46.95 201.88,52.92 156.59,61.08 -29.07,5.24 -98.79,6.2 -212.06,2.29 -114.13,-3.94 -265.38,-14.58 -443.4,-54.95 -232.54,-52.73 -474.64,-135.8 -697.54,-265.56 -208.77,-121.53 -392.19,-279.03 -535.46,-464.31 -125.88,-162.81 -192.69,-322.64 -223.47,-460.29 -29.46,-131.78 -29.83,-249.31 -3.14,-347.32 52.02,-191.03 147.54,-281.48 267.92,-281.85 69.24,-0.2 132.04,32.35 190.03,98.23 58.46,66.42 120.78,171.36 190.02,316.11 -14.16,62.23 -28.72,125.41 -37.37,189.55 -64.92,-128.28 -120.65,-222.39 -166.03,-284.33 -45.11,-61.55 -88.92,-91.24 -131.8,-90.56 -65.7,1.04 -107.69,68.82 -110.55,207.17 -1.46,70.66 12.22,158.41 47.21,260.2 36.25,105.47 93.3,230.21 188.85,363.02 93.9,130.55 206.16,241.85 323.79,334.69 122.88,97 248.17,176.91 375.72,232.44 264.52,115.16 433.58,151.18 480.38,142.27 29.53,-5.63 -7.19,-29.92 -97.97,-90 -87.66,-58.01 -208.51,-159.3 -355.66,-297.15 83.81,45.76 169.18,89.99 257.31,132.68zm-56.26 -709.19c-59.02,-135.18 -108.76,-267.66 -141.24,-399.41 -31.28,-126.84 -49.18,-252.54 -62.95,-374.31 69.24,-0.77 139.27,-1.54 209.69,-2.3 41.31,282.41 90.03,595.3 255.34,887.45 183.43,324.18 524.83,581.3 956.82,767.59 -31.87,13.98 -64.13,28.34 -96.39,41.94 -223.47,-62.42 -428.11,-144.72 -591.33,-266.53 -155.22,-115.84 -275.39,-258.1 -380.44,-396.14 -65.7,10.72 -131.01,21.25 -197.11,31.78 114.88,142.45 246.16,289.43 415.46,406.87 179.12,124.25 401.3,205.45 644.05,265.37 -35.41,11.88 -71.61,23.36 -107.41,35.24 -550.8,-179.79 -988.93,-446.36 -1228.68,-805.13 -209.52,-313.53 -270.68,-658.46 -316.32,-961.93 69.64,-0.58 140.46,-1.15 210.49,-1.92 14.16,124.84 32.31,253.97 66.1,384.28 35.09,135.39 89.3,271.88 153.04,411.27 70.03,-8.04 140.45,-15.89 210.88,-24.12zm1297.92 840.54c-396.58,-187.25 -709.89,-440.81 -876.56,-754.57 -151.52,-285.24 -195.54,-588.38 -234.09,-864.1 108.58,-1.15 217.57,-2.48 326.94,-4.02 94.03,-1.33 170.7,39.7 232.91,120.43 62.9,81.64 102.89,194.46 132.58,341.39 22.25,110.06 35.02,202.58 35.8,277.82 0.8,76.62 -11.01,135.75 -45.63,176.53 89.7,112.01 184.1,225.81 295.86,322.25 113.93,98.31 247.86,173.47 391.06,234.35 -30.29,20.3 -60.59,39.83 -91.67,58.21 -190.81,-75.25 -367.01,-169.06 -510.67,-297.54 -138.17,-123.58 -247.46,-269.59 -348.18,-411.85 13.77,-2.3 27.48,-4.92 40.91,-7.28 45.58,-7.98 67.25,-38.77 70.82,-92.86 3.51,-53.2 -8.84,-128.98 -33.44,-229.38 -25.37,-103.54 -51.5,-178.77 -84.98,-226.89 -33,-47.42 -76.71,-70.04 -131.41,-67.58 -17.69,0.79 -34.61,1.34 -52.32,2.1 46.43,242.21 101.83,504.25 241.17,747.11 150.1,261.59 408.78,472.16 728.24,631.46 -29.12,14.55 -57.84,29.48 -87.34,44.42zm-63.74 -900.28c26.81,94.81 61.61,177.63 99.54,246.99 38.41,70.24 78.55,128.14 119.6,171.17 81.74,85.68 140.78,116.01 166.03,101.1 26.29,-15.53 13.8,-70.29 -14.56,-169.83 -14.17,-49.75 -26.09,-109.72 -40.52,-178.45 -14.29,-68.02 -27.9,-146.14 -41.71,-232.44 -13.73,-85.87 -23.39,-161.84 -36.19,-227.28 -12.77,-65.32 -26.43,-120.93 -43.67,-166.95 -34.69,-92.6 -79.47,-137.57 -132.19,-135.18 -52.72,2.39 -91.6,52.71 -110.95,154.51 -9.76,51.38 -13.92,113.42 -8.66,185.54 5.36,73.4 16.96,157.73 43.28,250.82zm66.88 -758.98c51.93,-0.47 102.16,14.02 151.08,42.89 49.04,28.95 91.12,69.68 126.29,121.2 41.95,61.45 73.53,132.8 94.42,215.4 20.81,82.25 31.29,174.17 38.17,276.48 6.89,102.41 9.26,199.01 12.98,289.31 3.76,91.33 9.23,173.06 20.06,243.93 8.89,58.11 20.69,103.79 28.73,139.39 7.76,34.4 9.06,58.09 -7.48,72.56 -16.51,14.45 -49.75,20.04 -101.9,12.83 -51.76,-7.15 -115.66,-27.25 -184.52,-67.4 -86.24,-50.28 -172.42,-122.99 -250.22,-217.89 -76.89,-93.79 -141.46,-206.43 -186.09,-333.72 -42.77,-121.98 -59.24,-238.22 -56.65,-343.69 2.52,-102.72 23.34,-191.75 57.05,-265.37 27.66,-60.42 65.83,-106.46 110.94,-138.24 45.37,-31.97 94.42,-47.2 147.14,-47.68zm611.39 1214.29c-62.16,-180.94 -91.46,-383.79 -92.85,-589.34 -1.37,-204.33 10.23,-405.72 12.98,-604.65 77.12,-0.77 154.23,-1.92 230.95,-2.87 36.98,92.09 71.1,180.38 98.75,265.37 25.86,79.5 45.24,154.51 60.98,223.25 22.43,-82.52 44.22,-164.13 59.41,-246.04 15.1,-81.45 23.6,-163.51 29.9,-246.03 37.38,-0.58 75.14,-1.53 112.91,-2.68 -12.59,137.28 -37.67,274.56 -86.55,409.16 -51.09,140.68 -120.39,283.38 -173.5,427.93 -33.84,66.25 -60.2,117.38 -79.87,147.05 -14.16,-81.18 -22.1,-180.16 -45.64,-289.88 -25.66,-119.6 -65.7,-244.31 -109.76,-375.47 -9.84,142.45 -21.84,286.17 -24.4,430.8 -2.55,144.73 10.63,286.25 44.46,413.19 -12.59,14.36 -25.18,26.81 -37.77,40.21z"/>
  </g>
  <path id="_1_0" class="fil3" d="M10271.04 16439.82c219.13,148.39 403.01,253.3 536.63,296.59 144.92,46.95 201.88,52.92 156.59,61.08 -29.07,5.24 -98.79,6.2 -212.06,2.29 -114.13,-3.94 -265.38,-14.58 -443.4,-54.95 -232.54,-52.73 -474.64,-135.8 -697.54,-265.56 -208.77,-121.53 -392.19,-279.03 -535.46,-464.31 -125.88,-162.81 -192.69,-322.64 -223.47,-460.29 -29.46,-131.78 -29.83,-249.31 -3.14,-347.32 52.02,-191.03 147.54,-281.48 267.92,-281.85 69.24,-0.2 132.04,32.35 190.03,98.23 58.46,66.42 120.78,171.36 190.02,316.11 -14.16,62.23 -28.72,125.41 -37.37,189.55 -64.92,-128.28 -120.65,-222.39 -166.03,-284.33 -45.11,-61.55 -88.92,-91.24 -131.8,-90.56 -65.7,1.04 -107.69,68.82 -110.55,207.17 -1.46,70.66 12.22,158.41 47.21,260.2 36.25,105.47 93.3,230.21 188.85,363.02 93.9,130.55 206.16,241.85 323.79,334.69 122.88,97 248.17,176.91 375.72,232.44 264.52,115.16 433.58,151.18 480.38,142.27 29.53,-5.63 -7.19,-29.92 -97.97,-90 -87.66,-58.01 -208.51,-159.3 -355.66,-297.15 83.81,45.76 169.18,89.99 257.31,132.68zm-56.26 -709.19c-59.02,-135.18 -108.76,-267.66 -141.24,-399.41 -31.28,-126.84 -49.18,-252.54 -62.95,-374.31 69.24,-0.77 139.27,-1.54 209.69,-2.3 41.31,282.41 90.03,595.3 255.34,887.45 183.43,324.18 524.83,581.3 956.82,767.59 -31.87,13.98 -64.13,28.34 -96.39,41.94 -223.47,-62.42 -428.11,-144.72 -591.33,-266.53 -155.22,-115.84 -275.39,-258.1 -380.44,-396.14 -65.7,10.72 -131.01,21.25 -197.11,31.78 114.88,142.45 246.16,289.43 415.46,406.87 179.12,124.25 401.3,205.45 644.05,265.37 -35.41,11.88 -71.61,23.36 -107.41,35.24 -550.8,-179.79 -988.93,-446.36 -1228.68,-805.13 -209.52,-313.53 -270.68,-658.46 -316.32,-961.93 69.64,-0.58 140.46,-1.15 210.49,-1.92 14.16,124.84 32.31,253.97 66.1,384.28 35.09,135.39 89.3,271.88 153.04,411.27 70.03,-8.04 140.45,-15.89 210.88,-24.12zm1297.92 840.54c-396.58,-187.25 -709.89,-440.81 -876.56,-754.57 -151.52,-285.24 -195.54,-588.38 -234.09,-864.1 108.58,-1.15 217.57,-2.48 326.94,-4.02 94.03,-1.33 170.7,39.7 232.91,120.43 62.9,81.64 102.89,194.46 132.58,341.39 22.25,110.06 35.02,202.58 35.8,277.82 0.8,76.62 -11.01,135.75 -45.63,176.53 89.7,112.01 184.1,225.81 295.86,322.25 113.93,98.31 247.86,173.47 391.06,234.35 -30.29,20.3 -60.59,39.83 -91.67,58.21 -190.81,-75.25 -367.01,-169.06 -510.67,-297.54 -138.17,-123.58 -247.46,-269.59 -348.18,-411.85 13.77,-2.3 27.48,-4.92 40.91,-7.28 45.58,-7.98 67.25,-38.77 70.82,-92.86 3.51,-53.2 -8.84,-128.98 -33.44,-229.38 -25.37,-103.54 -51.5,-178.77 -84.98,-226.89 -33,-47.42 -76.71,-70.04 -131.41,-67.58 -17.69,0.79 -34.61,1.34 -52.32,2.1 46.43,242.21 101.83,504.25 241.17,747.11 150.1,261.59 408.78,472.16 728.24,631.46 -29.12,14.55 -57.84,29.48 -87.34,44.42zm-63.74 -900.28c26.81,94.81 61.61,177.63 99.54,246.99 38.41,70.24 78.55,128.14 119.6,171.17 81.74,85.68 140.78,116.01 166.03,101.1 26.29,-15.53 13.8,-70.29 -14.56,-169.83 -14.17,-49.75 -26.09,-109.72 -40.52,-178.45 -14.29,-68.02 -27.9,-146.14 -41.71,-232.44 -13.73,-85.87 -23.39,-161.84 -36.19,-227.28 -12.77,-65.32 -26.43,-120.93 -43.67,-166.95 -34.69,-92.6 -79.47,-137.57 -132.19,-135.18 -52.72,2.39 -91.6,52.71 -110.95,154.51 -9.76,51.38 -13.92,113.42 -8.66,185.54 5.36,73.4 16.96,157.73 43.28,250.82zm66.88 -758.98c51.93,-0.47 102.16,14.02 151.08,42.89 49.04,28.95 91.12,69.68 126.29,121.2 41.95,61.45 73.53,132.8 94.42,215.4 20.81,82.25 31.29,174.17 38.17,276.48 6.89,102.41 9.26,199.01 12.98,289.31 3.76,91.33 9.23,173.06 20.06,243.93 8.89,58.11 20.69,103.79 28.73,139.39 7.76,34.4 9.06,58.09 -7.48,72.56 -16.51,14.45 -49.75,20.04 -101.9,12.83 -51.76,-7.15 -115.66,-27.25 -184.52,-67.4 -86.24,-50.28 -172.42,-122.99 -250.22,-217.89 -76.89,-93.79 -141.46,-206.43 -186.09,-333.72 -42.77,-121.98 -59.24,-238.22 -56.65,-343.69 2.52,-102.72 23.34,-191.75 57.05,-265.37 27.66,-60.42 65.83,-106.46 110.94,-138.24 45.37,-31.97 94.42,-47.2 147.14,-47.68zm611.39 1214.29c-62.16,-180.94 -91.46,-383.79 -92.85,-589.34 -1.37,-204.33 10.23,-405.72 12.98,-604.65 77.12,-0.77 154.23,-1.92 230.95,-2.87 36.98,92.09 71.1,180.38 98.75,265.37 25.86,79.5 45.24,154.51 60.98,223.25 22.43,-82.52 44.22,-164.13 59.41,-246.04 15.1,-81.45 23.6,-163.51 29.9,-246.03 37.38,-0.58 75.14,-1.53 112.91,-2.68 -12.59,137.28 -37.67,274.56 -86.55,409.16 -51.09,140.68 -120.39,283.38 -173.5,427.93 -33.84,66.25 -60.2,117.38 -79.87,147.05 -14.16,-81.18 -22.1,-180.16 -45.64,-289.88 -25.66,-119.6 -65.7,-244.31 -109.76,-375.47 -9.84,142.45 -21.84,286.17 -24.4,430.8 -2.55,144.73 10.63,286.25 44.46,413.19 -12.59,14.36 -25.18,26.81 -37.77,40.21z"/>
  <g style="clip-path:url(#id6)">
   <g id="_1837583832688">
    <path id="_2_1" class="fil4" d="M10062.22 16926.34c-850.52,-178.17 -1275.53,-684.92 -1275.04,-1520.24 1368.42,1562.43 2607.14,1584.22 3716.16,65.38 -341.1,1022.24 -1154.81,1507.19 -2441.12,1454.86z"/>
   </g>
  </g>
  <g style="clip-path:url(#id7)">
   <g id="_1837583832688">
    <path class="fil4" d="M10062.22 16926.34c-850.52,-178.17 -1275.53,-684.92 -1275.04,-1520.24 1368.42,1562.43 2607.14,1584.22 3716.16,65.38 -341.1,1022.24 -1154.81,1507.19 -2441.12,1454.86z"/>
   </g>
  </g>
  <g style="clip-path:url(#id8)">
   <g id="_1837583832688">
    <path class="fil4" d="M10062.22 16926.34c-850.52,-178.17 -1275.53,-684.92 -1275.04,-1520.24 1368.42,1562.43 2607.14,1584.22 3716.16,65.38 -341.1,1022.24 -1154.81,1507.19 -2441.12,1454.86z"/>
   </g>
  </g>
  <g style="clip-path:url(#id9)">
   <g id="_1837583832688">
    <path class="fil4" d="M10062.22 16926.34c-850.52,-178.17 -1275.53,-684.92 -1275.04,-1520.24 1368.42,1562.43 2607.14,1584.22 3716.16,65.38 -341.1,1022.24 -1154.81,1507.19 -2441.12,1454.86z"/>
   </g>
  </g>
  <g style="clip-path:url(#id10)">
   <g id="_1837583832688">
    <path class="fil4" d="M10062.22 16926.34c-850.52,-178.17 -1275.53,-684.92 -1275.04,-1520.24 1368.42,1562.43 2607.14,1584.22 3716.16,65.38 -341.1,1022.24 -1154.81,1507.19 -2441.12,1454.86z"/>
   </g>
  </g>
  <g>
   <path class="fil5 str2" d="M9573.49 14624.59l69.61 572.51 2204.89 -273.64 -73.38 -572.03 -2201.12 273.16zm-210.38 207.33c-46.16,-34.28 -167.31,-52.23 -228.52,-59.83 -93.82,-11.65 -166.81,18.89 -212.27,69.03l-18.78 24.15c-38.56,58.02 -45.99,133.65 -14.59,201.22 10.72,23.07 24.88,42.8 41.66,59.15l34.08 26.51c60.68,37.23 141.46,41.86 218.85,11.65l104.86 -45.37c25.88,-14.95 80.8,-42.94 101.91,-68.86 23.66,31.2 3.29,90.06 30.98,129.79 32.15,46.12 90.74,42.19 129.91,29.23l-69.42 -570.62c-182.56,-11.4 -103.56,158.24 -118.67,193.95zm2664.31 -332.96c-23.65,-31.19 -3.28,-90.06 -30.97,-129.78 -32.16,-46.12 -90.74,-42.2 -129.91,-29.24l69.41 570.62c62.16,3.47 85.98,-12.54 113.98,-48.54 33.35,-42.88 -12.74,-104.19 4.69,-145.41 26.84,19.93 86.96,33.54 115.73,41.66 90.85,25.64 254.55,39.8 325.19,-51.03l1.14 -1.46c23.78,-30.62 38.34,-51.2 47.26,-92.24 15.76,-72.56 -9.99,-147.52 -63.82,-196.1l-23.48 -18.25c-55.73,-37.2 -133.23,-49.28 -222.45,-14.46 -19.46,7.6 -31.42,13.46 -50.74,20.91 -42.1,16.25 -129.07,60.21 -156.03,93.32z"/>
  </g>
  <path id="_1_2" class="fil6" d="M9573.49 14624.59l69.61 572.51 2204.89 -273.64 -73.38 -572.03 -2201.12 273.16zm-210.38 207.33c-46.16,-34.28 -167.31,-52.23 -228.52,-59.83 -93.82,-11.65 -166.81,18.89 -212.27,69.03l-18.78 24.15c-38.56,58.02 -45.99,133.65 -14.59,201.22 10.72,23.07 24.88,42.8 41.66,59.15l34.08 26.51c60.68,37.23 141.46,41.86 218.85,11.65l104.86 -45.37c25.88,-14.95 80.8,-42.94 101.91,-68.86 23.66,31.2 3.29,90.06 30.98,129.79 32.15,46.12 90.74,42.19 129.91,29.23l-69.42 -570.62c-182.56,-11.4 -103.56,158.24 -118.67,193.95zm2664.31 -332.96c-23.65,-31.19 -3.28,-90.06 -30.97,-129.78 -32.16,-46.12 -90.74,-42.2 -129.91,-29.24l69.41 570.62c62.16,3.47 85.98,-12.54 113.98,-48.54 33.35,-42.88 -12.74,-104.19 4.69,-145.41 26.84,19.93 86.96,33.54 115.73,41.66 90.85,25.64 254.55,39.8 325.19,-51.03l1.14 -1.46c23.78,-30.62 38.34,-51.2 47.26,-92.24 15.76,-72.56 -9.99,-147.52 -63.82,-196.1l-23.48 -18.25c-55.73,-37.2 -133.23,-49.28 -222.45,-14.46 -19.46,7.6 -31.42,13.46 -50.74,20.91 -42.1,16.25 -129.07,60.21 -156.03,93.32z"/>
  <g style="clip-path:url(#id11)">
   <g id="_1837583829904">
    <path id="_2_3" class="fil7" d="M10019.23 15460.83c1657.9,-149.12 2499.47,-429.47 2524.71,-841.02 -726.4,144.14 -1970.46,235.53 -3732.18,274.16 -35.06,431.97 367.43,620.92 1207.47,566.86z"/>
   </g>
  </g>
  <circle class="fil8" cx="8132.45" cy="14237.24" r="74.83"/>
  <circle class="fil8" cx="8754.65" cy="16048.4" r="37.41"/>
  <circle class="fil8" cx="7342.58" cy="14820.63" r="37.41"/>
  <circle class="fil8" cx="8637.56" cy="15167.76" r="18.71"/>
  <circle class="fil8" cx="8750.07" cy="13978.47" r="18.71"/>
  <circle class="fil8" cx="8218.7" cy="15626.1" r="74.83"/>
  <circle class="fil6" cx="8417.69" cy="14905.51" r="74.83"/>
  <circle class="fil6" cx="7065.74" cy="15121.69" r="37.41"/>
  <circle class="fil6" cx="7876.61" cy="13734.19" r="37.41"/>
  <circle class="fil6" cx="7792.59" cy="15704.54" r="18.71"/>
  <circle class="fil8" cx="13418.17" cy="14210.18" r="74.83"/>
  <circle class="fil8" cx="12795.97" cy="16021.34" r="37.41"/>
  <circle class="fil8" cx="14208.04" cy="14793.58" r="37.41"/>
  <circle class="fil8" cx="12913.06" cy="15140.7" r="18.71"/>
  <circle class="fil8" cx="12800.55" cy="13951.41" r="18.71"/>
  <circle class="fil8" cx="13331.92" cy="15599.05" r="74.83"/>
  <circle class="fil6" cx="13132.93" cy="14878.45" r="74.83"/>
  <circle class="fil6" cx="14484.88" cy="15094.63" r="37.41"/>
  <circle class="fil6" cx="13674.01" cy="13707.13" r="37.41"/>
  <circle class="fil6" cx="13758.03" cy="15677.48" r="18.71"/>
 </g>
</svg>
