<?xml version="1.0" encoding="UTF-8"?>
<!DOCTYPE svg PUBLIC "-//W3C//DTD SVG 1.1//EN" "http://www.w3.org/Graphics/SVG/1.1/DTD/svg11.dtd">
<!-- Creator: CorelDRAW -->
<svg xmlns="http://www.w3.org/2000/svg" xml:space="preserve" width="2480px" height="3508px" version="1.1" style="shape-rendering:geometricPrecision; text-rendering:geometricPrecision; image-rendering:optimizeQuality; fill-rule:evenodd; clip-rule:evenodd"
viewBox="0 0 2480 3507.43"
 xmlns:xlink="http://www.w3.org/1999/xlink"
 xmlns:xodm="http://www.corel.com/coreldraw/odm/2003">
 <defs>
  <style type="text/css">
   <![CDATA[
    .str0 {stroke:#FEFEFE;stroke-width:17.71;stroke-miterlimit:22.9256}
    .fil0 {fill:#FEFEFE}
   ]]>
  </style>
 </defs>
 <g id="Camada_x0020_1">
  <metadata id="CorelCorpID_0Corel-Layer"/>
  <path class="fil0 str0" d="M1481.97 719.4c104.51,-11.74 216.97,9.89 305.23,42.13 86.3,31.52 205.57,105.96 267.94,174.84 219.91,242.88 259.14,571.78 91.94,860.25 -43.53,75.1 -73.12,95.8 -118.83,145.24 -98.53,106.55 -276.72,179.69 -424.81,194.12 -107.51,10.48 -216.42,-7.92 -310.11,-41.8 -86.8,-31.39 -153.72,-73.81 -220.25,-132.97 -18.66,-16.59 -29.91,-22.09 -47.35,-42.15 -108.78,-125.16 -175.27,-248.99 -193.68,-427.98 -10.98,-106.78 7.33,-223.11 43.04,-315.05 41.68,-107.29 114.36,-213.27 201.57,-287.91 8.01,-6.85 14.99,-10.54 24.42,-18.27 105.16,-86.1 236.46,-134.22 380.89,-150.45zm2338.24 2626.77l0 -53.92c-245.57,-233.7 -266.07,-472.52 -563.68,-460.16 -208.65,8.66 -223.75,-21.12 -288.08,-101.41 7.07,-44.98 -6.26,-94.65 -49.13,-135.85 -52.72,-50.67 -654.3,-649.4 -666.23,-669.28 22.93,-37.12 52.35,-81.06 73.56,-128.7 119.36,-268.08 111.72,-568.53 -42.12,-816.78 -49.9,-80.53 -41.75,-60.44 -85.7,-118.98 -17.01,-22.64 -51.13,-51.35 -75.33,-78.16 -10.04,-11.13 -15.15,-11.82 -25.98,-21.12 -149.24,-128.01 -349.03,-209.13 -607.45,-201.58 -118.65,3.47 -228.59,38.79 -325.28,83.23 -62.79,28.87 -108.04,60.62 -158.06,97.85l-80.06 69.1c-19.5,19.19 -27.87,31.79 -48.5,53.69 -39.16,41.55 -96.8,134.15 -121.13,185.97 -45.4,96.74 -78.7,207.24 -84.73,325.79 -12.57,247.25 81.98,479.94 203.79,611.69l101.94 102.79c105.39,95.06 267.27,169.39 416,194.23 248.22,41.46 443.46,-17.09 643.52,-143.68 65.25,69.51 136.94,137.12 205.43,205.6l413.32 413.33c49.1,49.1 102.83,116 196.44,94.86 143.41,126.95 113.63,120.49 105.78,272.26 -15.7,303.36 313.47,386.49 465.78,563.75l52.59 0c58.68,-118.02 -319.99,-320.27 -277.75,-455.7 125.92,-42.36 309.51,325.29 449.86,284.36 20.45,-68.26 -22.71,-90.08 -57.55,-128.49 -33.12,-36.51 -53.21,-64.93 -88.13,-99.88 -81.61,-81.71 -163.63,-151.04 -137.66,-219.92 79.71,-19.95 125.29,57.24 232.28,148.72 91.47,78.22 152.54,163.93 222.26,126.39z"/>
 </g>
</svg>
